<svg id="Layer_1" data-name="Layer 1" xmlns="http://www.w3.org/2000/svg" viewBox="0 0 150 52.74"><defs><style>.cls-1{fill:#fefcfb}.cls-2{fill:#96c0e6}</style></defs><path class="cls-1" d="M27.71.13c1.65 3.31 4.21 9.48 4.21 15.92 0 8.35-.53 10.05-4.71 19.55-2.33 5.3-3.21 13.26-3.47 17.27h29V.13z" transform="translate(0 -.13)"/><path class="cls-2" d="M28.77 16.05c0-6.85-3.35-13.61-4.62-15.92H0v52.74h20.58c.28-4.13 1.15-12.65 3.74-18.54 4.01-9.11 4.45-10.33 4.45-18.28zM61.1 11.23h5.5v1.68H59V.8h2.1zM72 13.08a4.21 4.21 0 01-3.12-1.21 4.4 4.4 0 01-1.19-3.23v-.25A5.37 5.37 0 0168.2 6a4 4 0 011.46-1.65 3.86 3.86 0 012.09-.59 3.52 3.52 0 012.84 1.17 5 5 0 011 3.32v.82h-5.88a2.72 2.72 0 00.75 1.76 2.19 2.19 0 001.64.65 2.72 2.72 0 002.26-1.12l1.09 1A3.64 3.64 0 0174 12.63a4.47 4.47 0 01-2 .45zm-.25-7.72A1.7 1.7 0 0070.4 6a3 3 0 00-.65 1.62h3.85v-.2a2.48 2.48 0 00-.54-1.54 1.73 1.73 0 00-1.32-.52zM76.79 8.34a5.38 5.38 0 011-3.34 3.09 3.09 0 012.59-1.26 2.93 2.93 0 012.31 1V.13h2v12.78h-1.85l-.1-.93a3 3 0 01-2.42 1.1 3.08 3.08 0 01-2.56-1.28 5.55 5.55 0 01-.97-3.46zm2 .18a3.68 3.68 0 00.53 2.14 1.71 1.71 0 001.5.77 1.91 1.91 0 001.81-1.11V6.48a1.88 1.88 0 00-1.8-1.08 1.72 1.72 0 00-1.51.78 4.09 4.09 0 00-.51 2.34zM94.68 8.5a5.38 5.38 0 01-.94 3.34 3.05 3.05 0 01-2.57 1.24 2.93 2.93 0 01-2.46-1.14l-.1 1h-1.83V.13h2v4.64a3 3 0 012.35-1A3.1 3.1 0 0193.74 5a5.5 5.5 0 01.94 3.42zm-2-.17a3.78 3.78 0 00-.52-2.2 1.7 1.7 0 00-1.49-.73 1.87 1.87 0 00-1.87 1.15v3.71a1.89 1.89 0 001.86 1.17 1.73 1.73 0 001.47-.71 3.72 3.72 0 00.53-2.14zM101.83 12a3.15 3.15 0 01-2.53 1.05 2.8 2.8 0 01-2.22-.86 3.66 3.66 0 01-.75-2.48v-5.8h2v5.8c0 1.15.47 1.72 1.42 1.72a2 2 0 002-1.06V3.91h2v9h-1.9zM110.55 5.76a4.39 4.39 0 00-.82-.07 1.84 1.84 0 00-1.87 1.06v6.16h-2v-9h1.93v1a2.26 2.26 0 012-1.17 1.85 1.85 0 01.71.12zM115 10l1.83-6.1H119l-3.57 10.36a2.9 2.9 0 01-2.8 2.27 3.59 3.59 0 01-1-.15v-1.56h.38a2 2 0 001.15-.28 1.86 1.86 0 00.61-.94l.29-.77-3.16-8.95h2.18z" transform="translate(0 -.13)"/><path class="cls-1" d="M68.24 29a4.36 4.36 0 01-1.43 3 4.85 4.85 0 01-3.32 1.09 4.73 4.73 0 01-2.55-.69 4.45 4.45 0 01-1.7-1.95 6.9 6.9 0 01-.62-2.93v-1.17a7.2 7.2 0 01.6-3 4.59 4.59 0 011.75-2 4.85 4.85 0 012.62-.71 4.71 4.71 0 013.23 1.09 4.54 4.54 0 011.42 3.07h-2.09a3 3 0 00-.77-1.88 2.86 2.86 0 00-3.9.42 5 5 0 00-.75 3v1.07a5.32 5.32 0 00.7 3 2.33 2.33 0 002.06 1 2.7 2.7 0 001.86-.55 3 3 0 00.8-1.86zM71.92 24.87a3.16 3.16 0 012.5-1.14q2.88 0 2.92 3.28v5.88h-2v-5.8a1.78 1.78 0 00-.4-1.32 1.66 1.66 0 00-1.19-.39 1.94 1.94 0 00-1.81 1.08v6.43h-2V20.12h2zM79.39 21.55a1.1 1.1 0 01.29-.77 1.15 1.15 0 01.85-.31 1.16 1.16 0 01.85.31 1.14 1.14 0 010 1.54 1.16 1.16 0 01-.85.3 1.14 1.14 0 01-.85-.3 1.1 1.1 0 01-.29-.77zm2.15 11.34h-2v-9h2zM88.45 25.74a4.5 4.5 0 00-.83-.07 1.86 1.86 0 00-1.87 1.07v6.15h-2v-9h1.93v1a2.29 2.29 0 012-1.17 1.88 1.88 0 01.72.11zM89.05 28.31a5.27 5.27 0 01.52-2.38A3.82 3.82 0 0191 24.3a4.17 4.17 0 012.18-.57 3.94 3.94 0 013 1.17 4.59 4.59 0 011.23 3.1v.47a5.37 5.37 0 01-.52 2.38 3.85 3.85 0 01-1.46 1.63 4.22 4.22 0 01-2.2.57 3.89 3.89 0 01-3-1.27 4.85 4.85 0 01-1.14-3.38zm2 .17a3.64 3.64 0 00.57 2.18 1.88 1.88 0 001.6.79 1.85 1.85 0 001.59-.8 4 4 0 00.57-2.34 3.57 3.57 0 00-.58-2.16 1.88 1.88 0 00-1.6-.8 1.86 1.86 0 00-1.57.78 3.94 3.94 0 00-.56 2.35zM107 28.48a5.39 5.39 0 01-1 3.34 3.31 3.31 0 01-4.92.27v4.26h-2V23.89H101l.09.92a3 3 0 012.42-1.08 3 3 0 012.56 1.27 5.48 5.48 0 01.94 3.41zm-2-.17a3.75 3.75 0 00-.53-2.14 1.74 1.74 0 00-1.54-.79 1.87 1.87 0 00-1.78 1v4a1.89 1.89 0 001.8 1.05 1.74 1.74 0 001.51-.78 4.18 4.18 0 00.54-2.34zM113.43 25.74a4.47 4.47 0 00-.82-.07 1.87 1.87 0 00-1.88 1.07v6.15h-2v-9h1.93v1a2.29 2.29 0 012-1.17 1.88 1.88 0 01.72.11zM119.84 32.89a3.11 3.11 0 01-.24-.84 3.15 3.15 0 01-2.36 1 3.2 3.2 0 01-2.21-.77 2.5 2.5 0 01-.86-1.92 2.57 2.57 0 011.07-2.21 5.2 5.2 0 013.06-.77h1.24v-.58a1.55 1.55 0 00-.4-1.12 1.53 1.53 0 00-1.18-.42 1.8 1.8 0 00-1.14.35 1.08 1.08 0 00-.44.88h-2a2.23 2.23 0 01.49-1.39 3.31 3.31 0 011.34-1 4.74 4.74 0 011.88-.36 3.75 3.75 0 012.52.79 2.83 2.83 0 011 2.23v4.06a4.56 4.56 0 00.34 1.94v.14zm-2.23-1.45a2.35 2.35 0 001.13-.29 2 2 0 00.8-.79v-1.69h-1.09a3 3 0 00-1.69.39 1.26 1.26 0 00-.57 1.1 1.18 1.18 0 00.39.93 1.49 1.49 0 001.03.35zM127.37 31.45a1.8 1.8 0 001.26-.45 1.49 1.49 0 00.53-1.09h1.91a3 3 0 01-.53 1.57 3.49 3.49 0 01-1.33 1.16 4 4 0 01-1.81.42 3.87 3.87 0 01-3-1.22 4.85 4.85 0 01-1.1-3.38v-.21a4.77 4.77 0 011.09-3.25 3.83 3.83 0 013-1.23 3.73 3.73 0 012.62.93 3.4 3.4 0 011.06 2.46h-1.91a1.82 1.82 0 00-.53-1.27 1.67 1.67 0 00-1.26-.5 1.76 1.76 0 00-1.51.71 3.54 3.54 0 00-.54 2.16v.32a3.65 3.65 0 00.53 2.19 1.77 1.77 0 001.52.68zM135.13 21.7v2.19h1.58v1.5h-1.58v5a1.09 1.09 0 00.2.75 1 1 0 00.73.23 2.8 2.8 0 00.7-.09v1.57a4.85 4.85 0 01-1.33.19c-1.55 0-2.33-.86-2.33-2.57v-5.1h-1.48v-1.5h1.48V21.7zM138.26 21.55a1.06 1.06 0 01.3-.77 1.12 1.12 0 01.84-.31 1.15 1.15 0 01.85.31 1.14 1.14 0 010 1.54 1.14 1.14 0 01-.85.3 1.12 1.12 0 01-.84-.3 1.06 1.06 0 01-.3-.77zm2.15 11.34h-2v-9h2zM146.31 31.45a1.79 1.79 0 001.25-.45 1.45 1.45 0 00.53-1.09H150a3 3 0 01-.52 1.57 3.45 3.45 0 01-1.34 1.16 4 4 0 01-1.81.42 3.83 3.83 0 01-3-1.22 4.85 4.85 0 01-1.11-3.38v-.21a4.77 4.77 0 011.1-3.29 3.8 3.8 0 013-1.23 3.72 3.72 0 012.62.93 3.36 3.36 0 011.06 2.46h-1.91a1.81 1.81 0 00-.52-1.27 1.67 1.67 0 00-1.26-.5 1.77 1.77 0 00-1.52.71 3.68 3.68 0 00-.54 2.16v.32a3.72 3.72 0 00.53 2.19 1.78 1.78 0 001.53.72z" transform="translate(0 -.13)"/><path class="cls-2" d="M68.24 48.76a4.36 4.36 0 01-1.43 3 4.85 4.85 0 01-3.32 1.09 4.73 4.73 0 01-2.55-.69 4.57 4.57 0 01-1.7-2 6.92 6.92 0 01-.62-2.94v-1.06a7.17 7.17 0 01.6-3 4.59 4.59 0 011.75-2 4.85 4.85 0 012.62-.71 4.71 4.71 0 013.23 1.09 4.54 4.54 0 011.42 3.07h-2.09a3 3 0 00-.77-1.88 2.86 2.86 0 00-3.9.42 5 5 0 00-.75 3v1.07a5.32 5.32 0 00.7 3 2.33 2.33 0 002.06 1 2.7 2.7 0 001.87-.56 3 3 0 00.79-1.85zM72.08 52.7h-2V39.92h2zM74.28 41.36a1 1 0 01.3-.77 1.09 1.09 0 01.84-.31 1.11 1.11 0 01.85.31 1 1 0 01.3.77 1 1 0 01-.3.76 1.11 1.11 0 01-.85.31 1.09 1.09 0 01-.84-.31 1 1 0 01-.3-.76zm2.15 11.34h-2v-9h2zM80.5 43.7l.06 1a3.26 3.26 0 012.62-1.21c1.88 0 2.83 1.08 2.86 3.22v6H84v-5.84a1.85 1.85 0 00-.37-1.27 1.56 1.56 0 00-1.21-.41 2 2 0 00-1.82 1.11v6.4h-2v-9zM88.11 41.36a1.08 1.08 0 01.29-.77 1.11 1.11 0 01.85-.31 1.13 1.13 0 01.85.31 1 1 0 01.3.77 1 1 0 01-.3.76 1.13 1.13 0 01-.85.31 1.11 1.11 0 01-.85-.31 1.06 1.06 0 01-.29-.76zm2.14 11.34h-2v-9h2zM96.15 51.25a1.79 1.79 0 001.26-.44 1.49 1.49 0 00.53-1.09h1.91a3 3 0 01-.53 1.57A3.39 3.39 0 0198 52.44a4.2 4.2 0 01-4.81-.79 4.86 4.86 0 01-1.1-3.38v-.21a4.77 4.77 0 011.09-3.29 3.83 3.83 0 013-1.24 3.74 3.74 0 012.62.94 3.38 3.38 0 011.06 2.46h-1.92a1.82 1.82 0 00-.53-1.27 1.67 1.67 0 00-1.26-.5 1.76 1.76 0 00-1.51.71A3.54 3.54 0 0094.1 48v.32a3.65 3.65 0 00.53 2.19 1.79 1.79 0 001.52.74z" transform="translate(0 -.13)"/></svg>