<?xml version="1.0" standalone="no"?>
<!DOCTYPE svg PUBLIC "-//W3C//DTD SVG 20010904//EN"
 "http://www.w3.org/TR/2001/REC-SVG-20010904/DTD/svg10.dtd">
<svg version="1.0" xmlns="http://www.w3.org/2000/svg"
 width="700.000000pt" height="700.000000pt" viewBox="0 0 700.000000 700.000000"
 preserveAspectRatio="xMidYMid meet">
<metadata>
Created by potrace 1.11, written by Peter Selinger 2001-2013
</metadata>
<g transform="translate(0.000000,700.000000) scale(0.100000,-0.100000)"
fill="#000000" stroke="none">
<path d="M0 3500 l0 -3500 3500 0 3500 0 0 3500 0 3500 -3500 0 -3500 0 0
-3500z m3300 2673 c100 -184 231 -501 304 -735 123 -397 160 -717 137 -1195
-23 -499 -78 -696 -396 -1418 -111 -253 -196 -499 -254 -735 -77 -315 -143
-729 -177 -1122 l-18 -198 -1063 0 -1063 0 0 2730 0 2730 1249 0 1249 0 32
-57z m2930 -2673 l0 -2730 -1500 0 c-1450 0 -1500 1 -1500 18 0 38 31 343 50
497 48 382 140 811 228 1065 22 63 93 237 157 385 332 766 382 955 406 1525
12 273 6 476 -17 660 -48 384 -174 802 -360 1198 l-53 112 1295 0 1294 0 0
-2730z"/>
</g>
</svg>
